<svg xmlns="http://www.w3.org/2000/svg" x="0px" y="0px" viewBox="0 0 40 40" >
<style type="text/css">
	.st0{fill:#55ACEE;}
	.st1{fill:#FFFFFF;}
</style>
<path class="st0" d="M19.9,0.1h0.2C31.1,0.1,40,9,40,20l0,0c0,11-8.9,19.9-19.9,19.9h-0.2C8.9,39.9,0,31,0,20l0,0
	C0,9,8.9,0.1,19.9,0.1z"/>
<path class="st1" d="M24.8,9.6c-2.8,0.1-5.1,2.4-5.1,5.2c0,0.4,0,0.8,0.1,1.2c-4.4-0.2-8.2-2.3-10.8-5.5c-0.5,0.8-0.7,1.7-0.7,2.6
	c0,1.8,0.9,3.4,2.3,4.4c-0.9,0-1.7-0.3-2.4-0.7c0,0,0,0,0,0.1c0,2.5,1.8,4.6,4.2,5.1c-0.4,0.1-0.9,0.2-1.4,0.2c-0.3,0-0.7,0-1-0.1
	c0.7,2.1,2.6,3.6,4.9,3.6c-1.8,1.4-4.1,2.2-6.5,2.2c-0.4,0-0.8,0-1.3-0.1c2.3,1.5,5.1,2.4,8.1,2.4c9.7,0,14.9-8,14.9-14.9
	c0-0.2,0-0.5,0-0.7c1-0.7,1.9-1.7,2.6-2.7c-0.9,0.4-2,0.7-3,0.8c1.1-0.6,1.9-1.7,2.3-2.9c-1,0.6-2.1,1-3.3,1.3c-1-1-2.3-1.7-3.8-1.7
	C24.9,9.6,24.8,9.6,24.8,9.6z"/>
</svg>
