<svg xmlns="http://www.w3.org/2000/svg" x="0px" y="0px" viewBox="0 0 40 40" >
<style type="text/css">
	.st0{fill:#3A5A98;}
	.st1{fill:#345387;}
	.st2{fill:#2E4D72;}
	.st3{fill:#FFFFFF;}
</style>
<circle class="st0" cx="20" cy="20" r="20"/>
<path class="st1" d="M34.1,5.9c7.8,7.8,7.8,20.4,0,28.2c-7.8,7.8-20.4,7.8-28.2,0L34.1,5.9z"/>
<path class="st2" d="M39.8,22.2L25.4,7.8l-7.5,7.5l0.4,0.4L14,20l3.5,3.5l-0.5,0.5l3.8,3.8l-4.4,4.4l7.4,7.4
	C32.3,37.8,38.8,30.8,39.8,22.2z"/>
<path class="st3" d="M16.5,12.5c0,0.6,0,3.3,0,3.3H14V20h2.5v12.2h5V20h3.4c0,0,0.3-2,0.5-4.1c-0.4,0-3.8,0-3.8,0s0-2.4,0-2.8
	c0-0.4,0.5-1,1.1-1c0.5,0,1.7,0,2.7,0c0-0.6,0-2.5,0-4.3c-1.4,0-3,0-3.7,0C16.4,7.8,16.5,11.9,16.5,12.5z"/>
</svg>
