<svg xmlns="http://www.w3.org/2000/svg" x="0px" y="0px" viewBox="0 0 40 40" >
<style type="text/css">
	.st0{fill:url(#SVGID_1_);}
	.st1{fill:#FFFFFF;}
</style>
<radialGradient id="SVGID_1_" cx="6.1824" cy="-8.7762" r="1.4488" gradientTransform="matrix(2.0821 -39.8108 -39.8109 -2.0821 -361.4637 264.1747)" gradientUnits="userSpaceOnUse">
	<stop  offset="0" style="stop-color:#FED576"/>
	<stop  offset="0.2634" style="stop-color:#F47133"/>
	<stop  offset="0.6091" style="stop-color:#BC3081"/>
	<stop  offset="1" style="stop-color:#4C63D2"/>
</radialGradient>
<path class="st0" d="M0.1,19.5v1.1C0.3,30.9,8.6,39.2,18.5,40h3c9.9-0.8,18.1-9.2,18.4-19.4v-1.1C39.7,9.1,31.2,0.6,21,0.1
	C10.1-0.5,0.4,8.3,0.1,19.5z"/>
<path class="st1" d="M20.1,10.1c3.2,0,3.6,0,4.8,0.1c1.2,0.1,1.8,0.3,2.2,0.4c0.6,0.2,1,0.5,1.4,0.9c0.4,0.4,0.7,0.8,0.9,1.4
	c0.2,0.4,0.4,1.1,0.4,2.3c0.1,1.3,0.1,1.7,0.1,4.9s0,3.6-0.1,4.9c-0.1,1.2-0.2,1.8-0.4,2.3c-0.2,0.6-0.5,1-0.9,1.4
	c-0.4,0.4-0.8,0.7-1.4,0.9c-0.4,0.2-1.1,0.4-2.2,0.4c-1.3,0.1-1.6,0.1-4.8,0.1s-3.6,0-4.8-0.1c-1.2-0.1-1.8-0.3-2.2-0.4
	c-0.6-0.2-1-0.5-1.4-0.9c-0.4-0.4-0.7-0.8-0.9-1.4c-0.2-0.4-0.4-1.1-0.4-2.3c-0.1-1.3-0.1-1.7-0.1-4.9s0-3.6,0.1-4.9
	c0.1-1.2,0.2-1.8,0.4-2.3c0.2-0.6,0.5-1,0.9-1.4c0.4-0.4,0.8-0.7,1.4-0.9c0.4-0.2,1.1-0.4,2.2-0.4C16.5,10.1,16.9,10.1,20.1,10.1z
	 M20.1,7.9c-3.2,0-3.6,0-4.9,0.1s-2.1,0.3-2.9,0.6c-0.8,0.3-1.4,0.7-2.1,1.4c-0.7,0.7-1.1,1.4-1.4,2.2c-0.3,0.8-0.5,1.7-0.6,2.9
	c-0.1,1.3-0.1,1.7-0.1,5s0,3.7,0.1,5c0.1,1.3,0.3,2.2,0.6,2.9c0.3,0.8,0.7,1.5,1.4,2.2c0.7,0.7,1.3,1.1,2.1,1.4
	c0.8,0.3,1.6,0.5,2.9,0.6c1.3,0.1,1.7,0.1,4.9,0.1c3.2,0,3.6,0,4.9-0.1c1.3-0.1,2.1-0.3,2.9-0.6c0.8-0.3,1.4-0.7,2.1-1.4
	c0.7-0.7,1.1-1.4,1.4-2.2c0.3-0.8,0.5-1.7,0.6-2.9c0.1-1.3,0.1-1.7,0.1-5s0-3.7-0.1-5c-0.1-1.3-0.3-2.2-0.6-2.9
	c-0.3-0.8-0.7-1.5-1.4-2.2c-0.7-0.7-1.3-1.1-2.1-1.4C27.1,8.2,26.3,8,25,8C23.7,7.9,23.3,7.9,20.1,7.9z"/>
<path class="st1" d="M20.1,13.8c-3.4,0-6.1,2.8-6.1,6.2s2.7,6.2,6.1,6.2c3.4,0,6.1-2.8,6.1-6.2S23.5,13.8,20.1,13.8z M20.1,24.1
	c-2.2,0-4-1.8-4-4s1.8-4,4-4c2.2,0,4,1.8,4,4S22.3,24.1,20.1,24.1z"/>
<ellipse class="st1" cx="26.4" cy="13.5" rx="1.4" ry="1.5"/>
</svg>
