<svg xmlns="http://www.w3.org/2000/svg" x="0px" y="0px" viewBox="0 0 40 40" >
<style type="text/css">
	.st0{fill:#CA2128;}
	.st1{fill:#BA202D;}
	.st2{fill:#A91E30;}
	.st3{fill:#FFFFFF;}
</style>
<circle class="st0" cx="20" cy="20" r="20"/>
<path class="st1" d="M34.1,5.9c7.8,7.8,7.8,20.4,0,28.2c-7.8,7.8-20.4,7.8-28.2,0L34.1,5.9z"/>
<path class="st2" d="M39.6,23.7L27.9,12l-1.7,1.7l-9.1-3.7l-7.8,7.8l4.1,8.7l-1.8,1.8l11.5,11.5C31.5,38.3,38,31.9,39.6,23.7z"/>
<path class="st3" d="M20,8.7c-6.3,0-11.4,5.1-11.4,11.4c0,4.7,2.8,8.7,6.8,10.5c0-0.8,0-1.8,0.2-2.6c0.2-0.9,1.5-6.2,1.5-6.2
	s-0.4-0.7-0.4-1.8c0-1.7,1-3,2.2-3c1,0,1.5,0.8,1.5,1.7c0,1-0.7,2.6-1,4.1c-0.3,1.2,0.6,2.2,1.8,2.2c2.2,0,3.6-2.8,3.6-6.1
	c0-2.5-1.7-4.4-4.7-4.4c-3.5,0-5.6,2.6-5.6,5.5c0,1,0.3,1.7,0.8,2.2c0.2,0.2,0.2,0.3,0.2,0.6c-0.1,0.2-0.2,0.7-0.2,0.9
	c-0.1,0.3-0.3,0.4-0.6,0.3c-1.6-0.7-2.3-2.4-2.3-4.4c0-3.2,2.7-7.1,8.2-7.1c4.4,0,7.2,3.2,7.2,6.5c0,4.5-2.5,7.8-6.2,7.8
	c-1.2,0-2.4-0.7-2.8-1.4c0,0-0.7,2.6-0.8,3.1c-0.2,0.9-0.7,1.8-1.1,2.4c1,0.3,2.1,0.5,3.2,0.5c6.3,0,11.4-5.1,11.4-11.4
	C31.4,13.8,26.3,8.7,20,8.7z"/>
</svg>
