<?xml version="1.0" encoding="iso-8859-1"?>
<!-- Generator: Adobe Illustrator 17.1.0, SVG Export Plug-In . SVG Version: 6.00 Build 0)  -->
<!DOCTYPE svg PUBLIC "-//W3C//DTD SVG 1.1//EN" "http://www.w3.org/Graphics/SVG/1.1/DTD/svg11.dtd">
<svg version="1.1" id="Capa_1" xmlns="http://www.w3.org/2000/svg" xmlns:xlink="http://www.w3.org/1999/xlink" x="0px" y="0px"
	 viewBox="0 0 284.371 284.371" style="enable-background:new 0 0 284.371 284.371;" xml:space="preserve">
<path d="M272.612,127.54l-14.549-3.22c-3.072-20.008-11.227-38.362-23.092-53.708l5.452-5.452c5.858-5.857,5.858-15.355,0-21.213
	c-5.857-5.857-15.355-5.857-21.213,0l-5.453,5.453c-15.346-11.865-33.699-20.019-53.707-23.092l-3.22-14.55
	C155.311,4.89,149.221,0,142.186,0S129.06,4.89,127.54,11.759l-3.22,14.55C104.312,29.38,85.959,37.535,70.613,49.4l-5.452-5.452
	c-5.856-5.858-15.354-5.858-21.213,0c-5.858,5.857-5.858,15.355,0,21.213l5.452,5.452c-11.865,15.346-20.02,33.699-23.092,53.708
	l-14.55,3.22C4.89,129.061,0,135.15,0,142.186s4.89,13.125,11.759,14.646l14.55,3.22c3.072,20.008,11.227,38.362,23.092,53.708
	l-5.452,5.452c-5.858,5.857-5.858,15.355,0,21.213c2.929,2.929,6.768,4.394,10.606,4.394s7.678-1.465,10.606-4.394l5.452-5.452
	c15.346,11.865,33.699,20.019,53.707,23.091l3.22,14.55c1.52,6.869,7.61,11.759,14.646,11.759s13.125-4.89,14.646-11.759l3.22-14.55
	c20.008-3.072,38.361-11.227,53.707-23.092l5.453,5.453c2.929,2.93,6.768,4.394,10.606,4.394c3.838,0,7.678-1.465,10.606-4.394
	c5.858-5.857,5.858-15.355,0-21.213l-5.452-5.452c11.865-15.346,20.02-33.699,23.092-53.708l14.549-3.22
	c6.869-1.521,11.759-7.61,11.759-14.646S279.481,129.061,272.612,127.54z M225.762,117.172l-30.582-6.768l18.355-18.355
	C218.876,99.627,223.039,108.091,225.762,117.172z M161.991,150.587c-5.695,1.261-10.144,5.709-11.404,11.404l-8.401,37.96
	l-8.4-37.96c-1.261-5.695-5.709-10.144-11.404-11.404l-37.962-8.401l37.962-8.401c5.695-1.261,10.144-5.709,11.404-11.404l8.4-37.96
	l8.401,37.96c1.261,5.695,5.709,10.144,11.404,11.404l37.961,8.401L161.991,150.587z M192.322,70.836l-18.355,18.355L167.2,58.61
	C176.281,61.333,184.744,65.495,192.322,70.836z M117.172,58.61l-6.768,30.581L92.05,70.836
	C99.628,65.495,108.091,61.332,117.172,58.61z M70.836,92.049l18.355,18.355l-30.582,6.768
	C61.333,108.091,65.495,99.627,70.836,92.049z M58.61,167.2l30.582,6.768l-18.355,18.355C65.495,184.744,61.333,176.281,58.61,167.2
	z M92.05,213.535l18.355-18.355l6.768,30.581C108.091,223.039,99.628,218.876,92.05,213.535z M167.2,225.761l6.768-30.581
	l18.355,18.355C184.744,218.876,176.281,223.038,167.2,225.761z M213.535,192.322l-18.355-18.355l30.582-6.768
	C223.039,176.28,218.876,184.744,213.535,192.322z"/>
<g>
</g>
<g>
</g>
<g>
</g>
<g>
</g>
<g>
</g>
<g>
</g>
<g>
</g>
<g>
</g>
<g>
</g>
<g>
</g>
<g>
</g>
<g>
</g>
<g>
</g>
<g>
</g>
<g>
</g>
</svg>
