<svg xmlns="http://www.w3.org/2000/svg" x="0px" y="0px" viewBox="0 0 40 40" >
<style type="text/css">
	.st0{fill:#D42428;}
	.st1{fill:#CC202D;}
	.st2{fill:#BA202E;}
	.st3{fill:#FFFFFF;}
</style>
<circle class="st0" cx="20" cy="20" r="20"/>
<path class="st1" d="M34.1,5.9c7.8,7.8,7.8,20.5,0,28.3c-7.8,7.8-20.5,7.8-28.3,0L34.1,5.9z"/>
<path class="st2" d="M39.6,24l-9.9-9.9L18,15.4L11,26.4l13.2,13.2C31.9,37.9,38,31.8,39.6,24z"/>
<path class="st3" d="M30.5,16.1c0-1.7-1.4-3-3-3H13.2c-1.7,0-3,1.4-3,3v8.1c0,1.7,1.4,3,3,3h14.2c1.7,0,3-1.4,3-3L30.5,16.1
	L30.5,16.1z M18.3,23.6V16l5.8,3.8L18.3,23.6z"/>
</svg>
